<svg xmlns="http://www.w3.org/2000/svg" viewBox="0 0 900 30"><title>tc-icons</title><circle cx="614.5" cy="9.88" r="4.68" fill="none" stroke="#FFF" stroke-linecap="round" stroke-miterlimit="10"/><path d="M606.5,26V23.42a8,8,0,1,1,16,0V26" fill="none" stroke="#FFF" stroke-linecap="round" stroke-miterlimit="10"/><rect x="483.63" y="4.45" width="23.74" height="21.1" rx="0.5" ry="0.5" fill="none" stroke="#FFF" stroke-miterlimit="10" stroke-width="0.75"/><line x1="483.76" y1="10.26" x2="507.18" y2="10.26" fill="none" stroke="#FFF" stroke-miterlimit="10" stroke-width="0.75"/><line x1="486.49" y1="6.7" x2="486.49" y2="8.65" fill="none" stroke="#FFF" stroke-miterlimit="10" stroke-width="0.75"/><line x1="488.49" y1="6.68" x2="488.49" y2="8.63" fill="none" stroke="#FFF" stroke-miterlimit="10" stroke-width="0.75"/><line x1="490.49" y1="6.72" x2="490.49" y2="8.67" fill="none" stroke="#FFF" stroke-miterlimit="10" stroke-width="0.75"/><line x1="492.49" y1="6.74" x2="492.49" y2="8.69" fill="none" stroke="#FFF" stroke-miterlimit="10" stroke-width="0.75"/><line x1="494.49" y1="6.75" x2="494.49" y2="8.7" fill="none" stroke="#FFF" stroke-miterlimit="10" stroke-width="0.75"/><line x1="496.49" y1="6.69" x2="496.49" y2="8.64" fill="none" stroke="#FFF" stroke-miterlimit="10" stroke-width="0.75"/><line x1="498.49" y1="6.73" x2="498.49" y2="8.68" fill="none" stroke="#FFF" stroke-miterlimit="10" stroke-width="0.75"/><line x1="500.49" y1="6.76" x2="500.49" y2="8.71" fill="none" stroke="#FFF" stroke-miterlimit="10" stroke-width="0.75"/><line x1="502.49" y1="6.77" x2="502.49" y2="8.72" fill="none" stroke="#FFF" stroke-miterlimit="10" stroke-width="0.75"/><line x1="504.49" y1="6.71" x2="504.49" y2="8.66" fill="none" stroke="#FFF" stroke-miterlimit="10" stroke-width="0.75"/><path fill="#FFF" d="M492.14,21.72H491.5V14.54l-2,.23V14.32l2.63-.47v7.88Z"/><path fill="#FFF" d="M496.76,17.43h0.75A1.78,1.78,0,0,0,498.8,17a1.46,1.46,0,0,0,.44-1.1,1.48,1.48,0,0,0-1.64-1.6,1.75,1.75,0,0,0-1.23.44,1.52,1.52,0,0,0-.48,1.17h-0.6v0a1.89,1.89,0,0,1,.64-1.52,2.4,2.4,0,0,1,1.69-.61,2.35,2.35,0,0,1,1.67.57,2.07,2.07,0,0,1,.62,1.6,1.77,1.77,0,0,1-.34,1,2,2,0,0,1-1,.72,2,2,0,0,1,1.09.71,1.94,1.94,0,0,1,.36,1.17,2.07,2.07,0,0,1-.67,1.64,2.52,2.52,0,0,1-1.73.6,2.75,2.75,0,0,1-1.76-.58,1.89,1.89,0,0,1-.71-1.62v0h0.6a1.57,1.57,0,0,0,.52,1.22,1.92,1.92,0,0,0,1.34.47,1.84,1.84,0,0,0,1.3-.43,1.6,1.6,0,0,0,.47-1.24,1.47,1.47,0,0,0-.49-1.21,2.18,2.18,0,0,0-1.4-.39h-0.75V17.43Z"/><polyline points="557.92 22.58 550.34 15 557.92 7.42" fill="none" stroke="#FFF" stroke-linecap="round" stroke-miterlimit="10" stroke-width="0.75"/><polyline points="581.34 22.58 588.92 15 581.34 7.42" fill="none" stroke="#FFF" stroke-linecap="round" stroke-miterlimit="10" stroke-width="0.75"/><path d="M523.72,11.34V8.24a0.5,0.5,0,0,0-.5-0.5h-8.14a0.48,0.48,0,0,0-.48.48V22.66a1,1,0,0,0,1,1h18.78a1,1,0,0,0,1-1V12.34a1,1,0,0,0-1-1H523.72Z" fill="none" stroke="#FFF" stroke-miterlimit="10" stroke-width="0.75"/><line x1="396.26" y1="14.96" x2="402.36" y2="21.36" fill="none" stroke="#FFF" stroke-linecap="round" stroke-miterlimit="10" stroke-width="2.5"/><line x1="402.36" y1="21.36" x2="413.28" y2="9.91" fill="none" stroke="#FFF" stroke-linecap="round" stroke-miterlimit="10" stroke-width="2.5"/><line x1="464.5" y1="7.76" x2="464.5" y2="22.64" fill="none" stroke="#FFF" stroke-linecap="round" stroke-miterlimit="10" stroke-width="0.75"/><line x1="458.5" y1="7.76" x2="458.5" y2="22.64" fill="none" stroke="#FFF" stroke-linecap="round" stroke-miterlimit="10" stroke-width="0.75"/><line x1="470.5" y1="7.76" x2="470.5" y2="22.64" fill="none" stroke="#FFF" stroke-linecap="round" stroke-miterlimit="10" stroke-width="0.75"/><path fill="#FFF" d="M433.69,19.4a5.59,5.59,0,0,1,.24-1.92,4.86,4.86,0,0,1,1.21-1.42,21,21,0,0,0,1.35-1.72,2.56,2.56,0,0,0,.4-1.45,2.12,2.12,0,0,0-.54-1.56,2.08,2.08,0,0,0-1.54-.55,2.35,2.35,0,0,0-1.48.47,1.65,1.65,0,0,0-.61,1.39h-1.8l0-.06A3,3,0,0,1,432,10.12a4.28,4.28,0,0,1,2.84-.93,4.16,4.16,0,0,1,2.93,1,3.47,3.47,0,0,1,1,2.68,4,4,0,0,1-.67,2.26,12.6,12.6,0,0,1-1.78,2.09,2.25,2.25,0,0,0-.63.93,5.41,5.41,0,0,0-.11,1.28h-1.88Zm2,3.92h-2v-2h2v2Z"/><line x1="219.12" y1="8.8" x2="231.24" y2="20.92" fill="none" stroke="#FFF" stroke-linecap="round" stroke-miterlimit="10" stroke-width="0.75"/><line x1="231.24" y1="8.8" x2="219.12" y2="20.92" fill="none" stroke="#FFF" stroke-linecap="round" stroke-miterlimit="10" stroke-width="0.75"/><line x1="249.74" y1="13.05" x2="255.13" y2="18.44" fill="none" stroke="#FFF" stroke-linecap="round" stroke-miterlimit="10" stroke-width="0.75"/><line x1="260.51" y1="13.05" x2="255.13" y2="18.44" fill="none" stroke="#FFF" stroke-linecap="round" stroke-miterlimit="10" stroke-width="0.75"/><line x1="279.83" y1="18.36" x2="285.22" y2="12.98" fill="none" stroke="#FFF" stroke-linecap="round" stroke-miterlimit="10" stroke-width="0.75"/><line x1="290.6" y1="18.36" x2="285.22" y2="12.98" fill="none" stroke="#FFF" stroke-linecap="round" stroke-miterlimit="10" stroke-width="0.75"/><path d="M186,9.5h16.2c0.55,0,1.3.25,1.3,0.76v8.41a1.22,1.22,0,0,1-1.3.83H186" fill="none" stroke="#FFF" stroke-miterlimit="10"/><line x1="186" y1="19.36" x2="190.41" y2="14.86" fill="none" stroke="#FFF" stroke-linecap="round" stroke-miterlimit="10"/><line x1="186" y1="19.36" x2="190.51" y2="23.87" fill="none" stroke="#FFF" stroke-linecap="round" stroke-miterlimit="10"/><path d="M171.61,9.32V23.19a0.48,0.48,0,0,1-.47.49h-12a0.48,0.48,0,0,1-.47-0.49V9.32" fill="none" stroke="#FFF" stroke-miterlimit="10" stroke-width="0.75"/><line x1="156.5" y1="9.32" x2="173.72" y2="9.32" fill="none" stroke="#FFF" stroke-miterlimit="10" stroke-width="0.75"/><path d="M160.17,23.68V18.79a0.47,0.47,0,0,1,.47-0.47h1.27a0.47,0.47,0,0,1,.47.47v4.89" fill="none" stroke="#FFF" stroke-miterlimit="10" stroke-width="0.5"/><path d="M164,23.68V18.79a0.47,0.47,0,0,1,.47-0.47h1.27a0.47,0.47,0,0,1,.47.47v4.89" fill="none" stroke="#FFF" stroke-miterlimit="10" stroke-width="0.5"/><path d="M167.75,23.68V18.79a0.47,0.47,0,0,1,.47-0.47h1.27a0.47,0.47,0,0,1,.47.47v4.89" fill="none" stroke="#FFF" stroke-miterlimit="10" stroke-width="0.5"/><polyline points="167.54 9.22 167.54 7.98 162.68 7.98 162.68 9.22" fill="none" stroke="#FFF" stroke-miterlimit="10" stroke-width="0.75"/><circle cx="135" cy="15" r="9.35" fill="none" stroke="#FFF" stroke-linecap="round" stroke-miterlimit="10"/><circle cx="135" cy="15" r="3.62" fill="none" stroke="#FFF" stroke-linecap="round" stroke-miterlimit="10"/><line x1="104.5" y1="24" x2="104.5" y2="7" fill="none" stroke="#FFF" stroke-miterlimit="10"/><line x1="113" y1="15.5" x2="96" y2="15.5" fill="none" stroke="#FFF" stroke-miterlimit="10"/><rect x="65.5" y="5.5" width="5" height="5" rx="0.5" ry="0.5" fill="none" stroke="#FFF" stroke-miterlimit="10"/><rect x="72.5" y="5.5" width="5" height="5" rx="0.5" ry="0.5" fill="none" stroke="#FFF" stroke-miterlimit="10"/><rect x="79.5" y="5.5" width="5" height="5" rx="0.5" ry="0.5" fill="none" stroke="#FFF" stroke-miterlimit="10"/><rect x="65.5" y="12.5" width="5" height="5" rx="0.5" ry="0.5" fill="none" stroke="#FFF" stroke-miterlimit="10"/><rect x="72.5" y="12.5" width="5" height="5" rx="0.5" ry="0.5" fill="none" stroke="#FFF" stroke-miterlimit="10"/><rect x="79.5" y="12.5" width="5" height="5" rx="0.5" ry="0.5" fill="none" stroke="#FFF" stroke-miterlimit="10"/><rect x="65.5" y="19.5" width="5" height="5" rx="0.5" ry="0.5" fill="none" stroke="#FFF" stroke-miterlimit="10"/><rect x="72.5" y="19.5" width="5" height="5" rx="0.5" ry="0.5" fill="none" stroke="#FFF" stroke-miterlimit="10"/><rect x="79.5" y="19.5" width="5" height="5" rx="0.5" ry="0.5" fill="none" stroke="#FFF" stroke-miterlimit="10"/><path d="M53,24.5H37c-0.26,0-.47,0-0.47-0.21V12.78s6-5.41,8-7.2c0.49-.43.49-0.43,0.92,0l8.07,7.25V24.29C53.5,24.54,53.29,24.5,53,24.5Z" fill="none" stroke="#FFF" stroke-miterlimit="10"/><rect x="6" y="6.5" width="18" height="2" fill="none" stroke="#FFF" stroke-miterlimit="10" stroke-width="0.75"/><rect x="6" y="11.5" width="18" height="2" fill="none" stroke="#FFF" stroke-miterlimit="10" stroke-width="0.75"/><rect x="6" y="16.5" width="18" height="2" fill="none" stroke="#FFF" stroke-miterlimit="10" stroke-width="0.75"/><rect x="6" y="21.5" width="18" height="2" fill="none" stroke="#FFF" stroke-miterlimit="10" stroke-width="0.75"/><path d="M318.44,18.87a7.56,7.56,0,1,1,2.14-2.3" fill="none" stroke="#FFF" stroke-miterlimit="10" stroke-width="0.75"/><line x1="318.44" y1="18.87" x2="323.48" y2="24.08" fill="none" stroke="#FFF" stroke-linecap="round" stroke-miterlimit="10" stroke-width="0.75"/><circle fill="#FFF" cx="338" cy="21" r="1.55"/><circle fill="#FFF" cx="345" cy="21" r="1.55"/><circle fill="#FFF" cx="352" cy="21" r="1.55"/><circle fill="#FFF" cx="374.65" cy="22.48" r="1.55"/><circle fill="#FFF" cx="374.65" cy="15.48" r="1.55"/><circle fill="#FFF" cx="374.65" cy="8.48" r="1.55"/><path d="M653.31,18.46a8.09,8.09,0,1,1,.32-3.48" fill="none" stroke="#FFF" stroke-linecap="round" stroke-miterlimit="10"/><polyline points="650.01 13.11 653.78 15.38 656.05 11.61" fill="none" stroke="#FFF" stroke-linecap="round" stroke-miterlimit="10"/><path d="M681.5,27.67l-5.28-5.17H665.5a0.86,0.86,0,0,1-1-.82V7.5a1,1,0,0,1,1-1h19a1,1,0,0,1,1,1V21.68a0.86,0.86,0,0,1-1,.82h-3v5.17Z" fill="none" stroke="#FFF" stroke-linecap="round" stroke-miterlimit="10"/><line x1="670" y1="16.5" x2="680" y2="16.5" fill="none" stroke="#FFF" stroke-linecap="round" stroke-miterlimit="10"/><line x1="670" y1="12.5" x2="680" y2="12.5" fill="none" stroke="#FFF" stroke-linecap="round" stroke-miterlimit="10"/><rect x="692.33" y="4.63" width="24.83" height="19.47" rx="1" ry="1" fill="none" stroke="#FFF" stroke-miterlimit="10" stroke-width="0.75"/><line x1="695.68" y1="9.54" x2="704.75" y2="16.89" fill="none" stroke="#FFF" stroke-linecap="round" stroke-miterlimit="10" stroke-width="0.75"/><line x1="713.82" y1="9.54" x2="704.75" y2="16.89" fill="none" stroke="#FFF" stroke-linecap="round" stroke-miterlimit="10" stroke-width="0.75"/><line x1="735.5" y1="6" x2="735.5" y2="16" fill="none" stroke="#FFF" stroke-linecap="round" stroke-miterlimit="10"/><path d="M739,8.21a8.85,8.85,0,1,1-6.9,0" fill="none" stroke="#FFF" stroke-linecap="round" stroke-miterlimit="10"/><line x1="757.5" y1="6" x2="757.5" y2="8" fill="none" stroke="#FFF" stroke-linecap="round" stroke-miterlimit="10"/><line x1="764.5" y1="6" x2="764.5" y2="17" fill="none" stroke="#FFF" stroke-linecap="round" stroke-miterlimit="10"/><line x1="771.5" y1="6" x2="771.5" y2="11" fill="none" stroke="#FFF" stroke-linecap="round" stroke-miterlimit="10"/><rect x="755.5" y="8.5" width="4" height="5" fill="none" stroke="#FFF" stroke-miterlimit="10"/><rect x="762.5" y="17.5" width="4" height="5" fill="none" stroke="#FFF" stroke-miterlimit="10"/><rect x="769.5" y="11.5" width="4" height="5" fill="none" stroke="#FFF" stroke-miterlimit="10"/><line x1="757.5" y1="14" x2="757.5" y2="25" fill="none" stroke="#FFF" stroke-linecap="round" stroke-miterlimit="10"/><line x1="764.5" y1="23" x2="764.5" y2="25" fill="none" stroke="#FFF" stroke-linecap="round" stroke-miterlimit="10"/><line x1="771.5" y1="17" x2="771.5" y2="25" fill="none" stroke="#FFF" stroke-linecap="round" stroke-miterlimit="10"/><rect x="784.5" y="10.5" width="21" height="14" rx="1" ry="1" fill="none" stroke="#FFF" stroke-linecap="round" stroke-miterlimit="10"/><path d="M791.5,9V7.5a1,1,0,0,1,1-1h5a1,1,0,0,1,1,1V9" fill="none" stroke="#FFF" stroke-linecap="round" stroke-miterlimit="10"/><line x1="787" y1="16.5" x2="793" y2="16.5" fill="none" stroke="#FFF" stroke-linecap="round" stroke-miterlimit="10" stroke-width="0.75"/><rect x="793.5" y="15.5" width="3" height="3" fill="none" stroke="#FFF" stroke-linecap="round" stroke-miterlimit="10"/><line x1="797" y1="16.5" x2="803" y2="16.5" fill="none" stroke="#FFF" stroke-linecap="round" stroke-miterlimit="10" stroke-width="0.75"/><path d="M825.41,5.67l7.45,4.8a1,1,0,0,1,.46.84l0,9.68a1,1,0,0,1-.46.84l-7.47,4.82a1,1,0,0,1-1.09,0l-7.47-4.82a1,1,0,0,1-.46-0.84l0-9.68a1,1,0,0,1,.46-0.84l7.45-4.8A1,1,0,0,1,825.41,5.67Z" fill="none" stroke="#FFF" stroke-linecap="round" stroke-miterlimit="10"/></svg>