<svg xmlns="http://www.w3.org/2000/svg" viewBox="0 0 660 30"><defs><style>.a,.b,.c,.d{fill:none;stroke:#000;stroke-miterlimit:10;}.a,.c{stroke-linecap:round;}.a,.b{stroke-width:0.75px;}.c{stroke-width:2.5px;}.d{stroke-width:0.5px;}</style></defs><title>tc-icons</title><circle class="a" cx="615.5" cy="9.88" r="4.68"/><path class="a" d="M607.65,25.74s0-2.3,0-2.33a7.85,7.85,0,1,1,15.68,0s0,2.29,0,2.33"/><rect class="b" x="483.63" y="4.45" width="23.74" height="21.1" rx="0.5" ry="0.5"/><line class="b" x1="483.76" y1="10.26" x2="507.18" y2="10.26"/><line class="b" x1="486.49" y1="6.7" x2="486.49" y2="8.65"/><line class="b" x1="488.49" y1="6.68" x2="488.49" y2="8.63"/><line class="b" x1="490.49" y1="6.72" x2="490.49" y2="8.67"/><line class="b" x1="492.49" y1="6.74" x2="492.49" y2="8.69"/><line class="b" x1="494.49" y1="6.75" x2="494.49" y2="8.7"/><line class="b" x1="496.49" y1="6.69" x2="496.49" y2="8.64"/><line class="b" x1="498.49" y1="6.73" x2="498.49" y2="8.68"/><line class="b" x1="500.49" y1="6.76" x2="500.49" y2="8.71"/><line class="b" x1="502.49" y1="6.77" x2="502.49" y2="8.72"/><line class="b" x1="504.49" y1="6.71" x2="504.49" y2="8.66"/><path d="M492.14,21.72H491.5V14.54l-2,.23V14.32l2.63-.47v7.88Z"/><path d="M496.76,17.43h0.75A1.78,1.78,0,0,0,498.8,17a1.46,1.46,0,0,0,.44-1.1,1.48,1.48,0,0,0-1.64-1.6,1.75,1.75,0,0,0-1.23.44,1.52,1.52,0,0,0-.48,1.17h-0.6v0a1.89,1.89,0,0,1,.64-1.52,2.4,2.4,0,0,1,1.69-.61,2.35,2.35,0,0,1,1.67.57,2.07,2.07,0,0,1,.62,1.6,1.77,1.77,0,0,1-.34,1,2,2,0,0,1-1,.72,2,2,0,0,1,1.09.71,1.94,1.94,0,0,1,.36,1.17,2.07,2.07,0,0,1-.67,1.64,2.52,2.52,0,0,1-1.73.6,2.75,2.75,0,0,1-1.76-.58,1.89,1.89,0,0,1-.71-1.62v0h0.6a1.57,1.57,0,0,0,.52,1.22,1.92,1.92,0,0,0,1.34.47,1.84,1.84,0,0,0,1.3-.43,1.6,1.6,0,0,0,.47-1.24,1.47,1.47,0,0,0-.49-1.21,2.18,2.18,0,0,0-1.4-.39h-0.75V17.43Z"/><polyline class="a" points="557.92 22.58 550.34 15 557.92 7.42"/><polyline class="a" points="581.34 22.58 588.92 15 581.34 7.42"/><path class="b" d="M523.72,11.34V8.24a0.5,0.5,0,0,0-.5-0.5h-8.14a0.48,0.48,0,0,0-.48.48V22.66a1,1,0,0,0,1,1h18.78a1,1,0,0,0,1-1V12.34a1,1,0,0,0-1-1H523.72Z"/><line class="c" x1="396.26" y1="14.96" x2="402.36" y2="21.36"/><line class="c" x1="402.36" y1="21.36" x2="413.28" y2="9.91"/><line class="a" x1="464.5" y1="7.76" x2="464.5" y2="22.64"/><line class="a" x1="458.5" y1="7.76" x2="458.5" y2="22.64"/><line class="a" x1="470.5" y1="7.76" x2="470.5" y2="22.64"/><path d="M433.69,19.4a5.59,5.59,0,0,1,.24-1.92,4.86,4.86,0,0,1,1.21-1.42,21,21,0,0,0,1.35-1.72,2.56,2.56,0,0,0,.4-1.45,2.12,2.12,0,0,0-.54-1.56,2.08,2.08,0,0,0-1.54-.55,2.35,2.35,0,0,0-1.48.47,1.65,1.65,0,0,0-.61,1.39h-1.8l0-.06A3,3,0,0,1,432,10.12a4.28,4.28,0,0,1,2.84-.93,4.16,4.16,0,0,1,2.93,1,3.47,3.47,0,0,1,1,2.68,4,4,0,0,1-.67,2.26,12.6,12.6,0,0,1-1.78,2.09,2.25,2.25,0,0,0-.63.93,5.41,5.41,0,0,0-.11,1.28h-1.88Zm2,3.92h-2v-2h2v2Z"/><line class="a" x1="219.12" y1="8.8" x2="231.24" y2="20.92"/><line class="a" x1="231.24" y1="8.8" x2="219.12" y2="20.92"/><line class="a" x1="249.74" y1="13.05" x2="255.13" y2="18.44"/><line class="a" x1="260.51" y1="13.05" x2="255.13" y2="18.44"/><line class="a" x1="279.83" y1="18.36" x2="285.22" y2="12.98"/><line class="a" x1="290.6" y1="18.36" x2="285.22" y2="12.98"/><path class="b" d="M186.24,9.33h16a1,1,0,0,1,1,.93v8.41a1,1,0,0,1-1,.93h-16"/><line class="a" x1="186" y1="19.36" x2="190.41" y2="14.86"/><line class="a" x1="186" y1="19.36" x2="190.51" y2="23.87"/><path class="b" d="M171.61,9.32V23.19a0.48,0.48,0,0,1-.47.49h-12a0.48,0.48,0,0,1-.47-0.49V9.32"/><line class="b" x1="156.5" y1="9.32" x2="173.72" y2="9.32"/><path class="d" d="M160.17,23.68V18.79a0.47,0.47,0,0,1,.47-0.47h1.27a0.47,0.47,0,0,1,.47.47v4.89"/><path class="d" d="M164,23.68V18.79a0.47,0.47,0,0,1,.47-0.47h1.27a0.47,0.47,0,0,1,.47.47v4.89"/><path class="d" d="M167.75,23.68V18.79a0.47,0.47,0,0,1,.47-0.47h1.27a0.47,0.47,0,0,1,.47.47v4.89"/><polyline class="b" points="167.54 9.22 167.54 7.98 162.68 7.98 162.68 9.22"/><circle class="a" cx="135" cy="15" r="9.35"/><circle class="a" cx="135" cy="15" r="3.62"/><line class="b" x1="105.23" y1="24.21" x2="105.24" y2="7.21"/><line class="b" x1="113.73" y1="15.71" x2="96.73" y2="15.71"/><rect class="b" x="65.5" y="5.5" width="5" height="5" rx="0.5" ry="0.5"/><rect class="b" x="72.5" y="5.5" width="5" height="5" rx="0.5" ry="0.5"/><rect class="b" x="79.5" y="5.5" width="5" height="5" rx="0.5" ry="0.5"/><rect class="b" x="65.5" y="12.5" width="5" height="5" rx="0.5" ry="0.5"/><rect class="b" x="72.5" y="12.5" width="5" height="5" rx="0.5" ry="0.5"/><rect class="b" x="79.5" y="12.5" width="5" height="5" rx="0.5" ry="0.5"/><rect class="b" x="65.5" y="19.5" width="5" height="5" rx="0.5" ry="0.5"/><rect class="b" x="72.5" y="19.5" width="5" height="5" rx="0.5" ry="0.5"/><rect class="b" x="79.5" y="19.5" width="5" height="5" rx="0.5" ry="0.5"/><path class="b" d="M53,24.75H37a0.47,0.47,0,0,1-.47-0.46V12.78s6-5.41,8-7.2c0.49-.43.49-0.43,0.92,0l8.07,7.25V24.29A0.47,0.47,0,0,1,53,24.75Z"/><rect class="b" x="6" y="6.5" width="18" height="2"/><rect class="b" x="6" y="11.5" width="18" height="2"/><rect class="b" x="6" y="16.5" width="18" height="2"/><rect class="b" x="6" y="21.5" width="18" height="2"/><path class="b" d="M318.44,18.87a7.56,7.56,0,1,1,2.14-2.3"/><line class="a" x1="318.44" y1="18.87" x2="323.48" y2="24.08"/><circle cx="338" cy="21" r="1.55"/><circle cx="345" cy="21" r="1.55"/><circle cx="352" cy="21" r="1.55"/><circle cx="374.65" cy="22.48" r="1.55"/><circle cx="374.65" cy="15.48" r="1.55"/><circle cx="374.65" cy="8.48" r="1.55"/><path class="a" d="M653.31,18.46a8.09,8.09,0,1,1,.32-3.48"/><polyline class="a" points="650.01 13.11 653.78 15.38 656.05 11.61"/></svg>